<svg width="48" height="48" viewBox="0 0 48 48" fill="none" xmlns="http://www.w3.org/2000/svg">
<circle cx="24" cy="24" r="24" fill="#985EA4"/>
<path d="M10.774 31.836C10.1873 31.6893 9.65933 31.396 9.19 30.956C8.73533 30.516 8.442 30.0613 8.31 29.592C8.29533 29.4013 8.27333 29.152 8.244 28.844C8.22933 28.536 8.222 28.25 8.222 27.986C8.23667 27.722 8.25867 27.568 8.288 27.524C8.332 27.4947 8.354 27.4067 8.354 27.26C8.33933 27.2013 8.34667 27.106 8.376 26.974C8.42 26.8273 8.464 26.6807 8.508 26.534C8.58133 26.358 8.618 26.2187 8.618 26.116C8.618 25.9987 8.61067 25.9107 8.596 25.852C8.596 25.852 8.618 25.808 8.662 25.72C8.706 25.6173 8.75733 25.5367 8.816 25.478C8.904 25.39 8.94067 25.302 8.926 25.214C8.926 25.126 8.926 25.082 8.926 25.082C8.91133 25.0233 8.926 24.9427 8.97 24.84C9.014 24.7373 9.058 24.6567 9.102 24.598C9.13133 24.5687 9.168 24.51 9.212 24.422C9.27067 24.3193 9.3 24.268 9.3 24.268C9.3 24.224 9.32933 24.1067 9.388 23.916C9.46133 23.7253 9.542 23.52 9.63 23.3C9.718 23.0653 9.79867 22.8527 9.872 22.662C9.96 22.4713 10.026 22.3467 10.07 22.288V22.244C10.1287 22.0973 10.2093 21.9433 10.312 21.782C10.3267 21.7087 10.3633 21.5913 10.422 21.43C10.4807 21.254 10.5467 21.0853 10.62 20.924C10.7813 20.572 10.9793 20.176 11.214 19.736C11.4633 19.2813 11.7273 18.834 12.006 18.394C12.2847 17.9393 12.5487 17.536 12.798 17.184C13.062 16.8173 13.2893 16.546 13.48 16.37C13.7293 16.0913 13.9273 15.9447 14.074 15.93C14.2207 15.9153 14.404 16.018 14.624 16.238C14.7267 16.3407 14.8 16.4653 14.844 16.612C14.888 16.7587 14.9027 16.8907 14.888 17.008C14.888 17.1107 14.8587 17.1693 14.8 17.184C14.6973 17.2427 14.5433 17.4113 14.338 17.69C14.1327 17.954 13.898 18.2693 13.634 18.636C13.3847 19.0027 13.1353 19.384 12.886 19.78C12.6513 20.1613 12.446 20.506 12.27 20.814C12.0793 21.2393 11.9033 21.6133 11.742 21.936C11.5807 22.244 11.5 22.398 11.5 22.398C11.4853 22.442 11.4707 22.4787 11.456 22.508C11.4413 22.5373 11.4267 22.5667 11.412 22.596C11.192 23.0507 11.0087 23.4687 10.862 23.85C10.7153 24.2167 10.5687 24.6053 10.422 25.016C10.334 25.1187 10.2827 25.2213 10.268 25.324C10.2533 25.4267 10.246 25.478 10.246 25.478C10.2167 25.4633 10.1947 25.5 10.18 25.588C10.1653 25.6613 10.136 25.7493 10.092 25.852C10.0187 25.9107 9.97467 26.006 9.96 26.138C9.94533 26.2553 9.938 26.3727 9.938 26.49C9.83533 26.754 9.74 27.0767 9.652 27.458C9.564 27.8247 9.498 28.184 9.454 28.536C9.42467 28.8733 9.41733 29.1373 9.432 29.328C9.46133 29.5773 9.586 29.8047 9.806 30.01C10.0407 30.2007 10.3193 30.362 10.642 30.494C10.8033 30.5527 10.9427 30.604 11.06 30.648C11.1773 30.6773 11.2873 30.692 11.39 30.692C11.5073 30.7067 11.654 30.7067 11.83 30.692C12.0207 30.6627 12.2773 30.6187 12.6 30.56H12.578C12.7687 30.5307 12.9667 30.494 13.172 30.45C13.392 30.3913 13.5973 30.34 13.788 30.296C13.964 30.2667 14.1327 30.2373 14.294 30.208C14.4553 30.164 14.58 30.1273 14.668 30.098C14.9907 30.01 15.2253 29.9513 15.372 29.922C15.5187 29.878 15.6287 29.8853 15.702 29.944C15.7753 30.0027 15.8267 30.076 15.856 30.164C15.8853 30.2373 15.878 30.34 15.834 30.472C15.8047 30.5453 15.6873 30.6553 15.482 30.802C15.2767 30.934 15.0273 31.066 14.734 31.198C14.4553 31.33 14.1767 31.44 13.898 31.528C13.6047 31.66 13.2527 31.7627 12.842 31.836C12.446 31.9093 12.0573 31.946 11.676 31.946C11.3093 31.946 11.0087 31.9093 10.774 31.836ZM20.0195 31.528C19.5648 31.4987 19.1615 31.3593 18.8095 31.11C18.4722 30.8607 18.1128 30.604 17.7315 30.34C17.4822 30.0907 17.2842 29.8267 17.1375 29.548C16.9908 29.2547 16.8735 28.8733 16.7855 28.404C16.7268 28.1253 16.7268 27.7733 16.7855 27.348C16.8442 26.9227 16.9395 26.4973 17.0715 26.072C17.2035 25.632 17.3282 25.28 17.4455 25.016C17.6215 24.6053 17.8415 24.1653 18.1055 23.696C18.3842 23.212 18.6555 22.7573 18.9195 22.332C19.1982 21.892 19.4182 21.54 19.5795 21.276C19.6822 21.1733 19.7262 21.122 19.7115 21.122C19.7115 21.1073 19.7115 21.1 19.7115 21.1C19.7115 21.0267 19.7848 20.8433 19.9315 20.55C20.0928 20.242 20.2322 19.9707 20.3495 19.736C20.5695 19.5013 20.6942 19.3107 20.7235 19.164C20.7528 19.0173 20.7308 18.9 20.6575 18.812C20.6282 18.7533 20.6795 18.6507 20.8115 18.504C20.9435 18.3573 21.1415 18.1887 21.4055 17.998C21.6695 17.8073 21.9702 17.6167 22.3075 17.426C22.6595 17.1473 22.9968 17.0007 23.3195 16.986C23.6568 16.9567 23.8548 17.0227 23.9135 17.184C23.9135 17.228 23.9942 17.2427 24.1555 17.228C24.3315 17.1987 24.5295 17.162 24.7495 17.118C24.9842 17.0593 25.1895 17.0153 25.3655 16.986C25.4388 16.898 25.6075 16.832 25.8715 16.788C26.1502 16.7293 26.4728 16.678 26.8395 16.634C27.0302 16.6487 27.2135 16.656 27.3895 16.656C27.5802 16.6413 27.7342 16.6267 27.8515 16.612C27.9835 16.5973 28.0495 16.59 28.0495 16.59C28.1522 16.5607 28.2695 16.5753 28.4015 16.634C28.5482 16.6927 28.6802 16.854 28.7975 17.118C28.9002 17.382 28.8635 17.58 28.6875 17.712C28.5262 17.844 28.1448 17.9467 27.5435 18.02C27.1035 18.0787 26.7222 18.13 26.3995 18.174C26.0768 18.2033 25.7395 18.2473 25.3875 18.306C25.0355 18.35 24.6028 18.4307 24.0895 18.548C23.7228 18.6213 23.4222 18.7093 23.1875 18.812C22.9528 18.9 22.7475 19.0393 22.5715 19.23C22.3955 19.406 22.1975 19.6627 21.9775 20C21.8748 20.0733 21.7428 20.264 21.5815 20.572C21.4202 20.88 21.2588 21.188 21.0975 21.496C20.6868 22.068 20.3275 22.5667 20.0195 22.992C19.7262 23.4027 19.6088 23.6447 19.6675 23.718C19.6675 23.718 19.7482 23.74 19.9095 23.784C20.0708 23.828 20.1808 23.85 20.2395 23.85C20.3862 23.7767 20.5622 23.7253 20.7675 23.696C20.9875 23.6667 21.1635 23.6373 21.2955 23.608C22.2048 23.3733 22.9162 23.19 23.4295 23.058C23.9575 22.926 24.3535 22.8307 24.6175 22.772C24.8962 22.6987 25.1088 22.6547 25.2555 22.64C25.4608 22.4787 25.6588 22.4493 25.8495 22.552C26.0548 22.6547 26.2162 22.816 26.3335 23.036C26.4068 23.1973 26.4068 23.3367 26.3335 23.454C26.2748 23.5713 26.0915 23.6887 25.7835 23.806C25.4902 23.9233 25.0502 24.0627 24.4635 24.224C23.8768 24.3853 23.1068 24.598 22.1535 24.862C21.3468 25.0967 20.6575 25.236 20.0855 25.28C19.5135 25.324 19.2422 25.1993 19.2715 24.906C19.1688 24.8473 19.0515 24.9207 18.9195 25.126C18.8022 25.3167 18.6848 25.5807 18.5675 25.918C18.4502 26.2553 18.3475 26.6147 18.2595 26.996C18.1862 27.3773 18.1348 27.7367 18.1055 28.074C18.0908 28.3967 18.1128 28.6387 18.1715 28.8C18.2888 29.1373 18.4428 29.4087 18.6335 29.614C18.8242 29.8047 19.1688 29.9733 19.6675 30.12C19.9608 30.1347 20.2468 30.1567 20.5255 30.186C20.8042 30.2153 21.1195 30.1567 21.4715 30.01C22.3368 29.8633 23.0188 29.7093 23.5175 29.548C24.0162 29.3867 24.3022 29.2767 24.3755 29.218C24.4928 29.1593 24.5662 29.13 24.5955 29.13C24.6395 29.1153 24.6982 29.108 24.7715 29.108C24.7275 29.1813 24.7422 29.1887 24.8155 29.13C24.9035 29.0567 25.0208 28.9467 25.1675 28.8C25.3288 28.6533 25.5415 28.514 25.8055 28.382C26.0695 28.25 26.3042 28.1473 26.5095 28.074C26.7295 28.0007 26.8468 28.0007 26.8615 28.074C26.9495 28.2207 26.9348 28.426 26.8175 28.69C26.7002 28.9393 26.4875 29.218 26.1795 29.526C25.8715 29.8193 25.4755 30.1053 24.9915 30.384C24.2142 30.7947 23.3708 31.0807 22.4615 31.242C21.5522 31.418 20.7382 31.5133 20.0195 31.528ZM32.9943 31.836C32.4077 31.836 31.8797 31.7993 31.4103 31.726C30.9557 31.6673 30.5377 31.4913 30.1563 31.198C29.7017 30.8607 29.4377 30.4207 29.3643 29.878C29.3057 29.3207 29.4157 28.5213 29.6943 27.48C29.7677 27.1133 29.8483 26.7907 29.9363 26.512C30.039 26.2333 30.127 26.094 30.2003 26.094C30.215 26.0207 30.237 25.918 30.2663 25.786C30.2957 25.6393 30.325 25.4707 30.3543 25.28C30.4277 25.016 30.479 24.8253 30.5083 24.708C30.5377 24.576 30.5963 24.466 30.6843 24.378C30.7283 24.3487 30.7797 24.2533 30.8383 24.092C30.897 23.916 30.9337 23.8133 30.9483 23.784C30.9483 23.784 30.9557 23.7327 30.9703 23.63C30.985 23.5127 31.0217 23.3807 31.0803 23.234C31.3003 22.8673 31.4103 22.6253 31.4103 22.508C31.4397 22.4493 31.4983 22.3613 31.5863 22.244C31.689 22.1267 31.7697 21.9727 31.8283 21.782C32.2683 21.0047 32.6277 20.3373 32.9063 19.78C33.185 19.208 33.3537 18.7827 33.4123 18.504C33.4857 18.3427 33.5517 18.2033 33.6103 18.086C33.6837 17.954 33.7717 17.8293 33.8743 17.712C33.845 17.6387 33.9037 17.558 34.0503 17.47C34.197 17.382 34.4023 17.2867 34.6663 17.184C34.9303 17.0813 35.2163 16.9933 35.5243 16.92C35.847 16.8467 36.1623 16.8027 36.4703 16.788C36.5583 16.7293 36.749 16.6853 37.0423 16.656C37.3503 16.6267 37.7023 16.612 38.0983 16.612C38.4943 16.612 38.861 16.6267 39.1983 16.656C39.521 16.656 39.7777 16.7 39.9683 16.788C40.159 16.876 40.3497 16.964 40.5403 17.052C40.6137 17.1253 40.665 17.2133 40.6943 17.316C40.7383 17.4187 40.7677 17.514 40.7823 17.602C40.797 17.6753 40.8043 17.712 40.8043 17.712C40.8043 17.7853 40.599 17.8293 40.1883 17.844C39.7777 17.8587 39.3303 17.866 38.8463 17.866C38.3037 17.866 37.783 17.91 37.2843 17.998C36.7857 18.086 36.4557 18.13 36.2943 18.13C36.089 18.1887 35.9057 18.2253 35.7443 18.24C35.5977 18.2547 35.5243 18.262 35.5243 18.262C35.495 18.262 35.3997 18.3793 35.2383 18.614C35.0917 18.834 34.923 19.098 34.7323 19.406C34.5563 19.6993 34.395 19.978 34.2483 20.242C34.1163 20.4913 34.0503 20.638 34.0503 20.682C34.0503 20.8287 33.9917 20.99 33.8743 21.166C33.757 21.342 33.6177 21.5473 33.4563 21.782C33.3097 21.9727 33.2143 22.1487 33.1703 22.31C33.1263 22.4567 33.1703 22.5593 33.3023 22.618C33.537 22.574 33.8523 22.53 34.2483 22.486C34.659 22.442 35.0623 22.4053 35.4583 22.376C35.869 22.332 36.1843 22.31 36.4043 22.31C36.6537 22.2367 36.859 22.222 37.0203 22.266C37.1817 22.31 37.299 22.354 37.3723 22.398C37.5483 22.4273 37.673 22.486 37.7463 22.574C37.8197 22.6473 37.849 22.7207 37.8343 22.794C37.8343 22.8673 37.783 22.926 37.6803 22.97C37.5923 23.058 37.3723 23.1607 37.0203 23.278C36.6683 23.3953 36.2577 23.5127 35.7883 23.63C35.319 23.7473 34.8423 23.8573 34.3583 23.96C33.889 24.048 33.4857 24.1213 33.1483 24.18C32.811 24.2387 32.613 24.2607 32.5543 24.246C32.4663 24.0407 32.4003 24.048 32.3563 24.268C32.327 24.4733 32.1657 24.8987 31.8723 25.544C31.711 25.9107 31.5643 26.2627 31.4323 26.6C31.315 26.9227 31.2123 27.2673 31.1243 27.634C31.051 27.986 30.9703 28.3893 30.8823 28.844C30.7797 29.24 30.7503 29.5627 30.7943 29.812C30.853 30.0467 31.117 30.274 31.5863 30.494C31.8797 30.5527 32.2683 30.5747 32.7523 30.56C33.251 30.5453 33.8157 30.4573 34.4463 30.296C34.7103 30.1347 34.9523 30.01 35.1723 29.922C35.3923 29.8193 35.5537 29.7387 35.6563 29.68C35.7297 29.68 35.8397 29.6653 35.9863 29.636C36.1477 29.592 36.2577 29.57 36.3163 29.57C36.4337 29.4087 36.5803 29.328 36.7563 29.328C36.7857 29.328 36.8517 29.3867 36.9543 29.504C37.0717 29.6067 37.1817 29.724 37.2843 29.856C37.387 29.988 37.431 30.076 37.4163 30.12C37.4163 30.2667 37.255 30.4133 36.9323 30.56C36.6097 30.7067 36.0817 30.9267 35.3483 31.22C34.9817 31.3813 34.681 31.506 34.4463 31.594C34.2263 31.682 34.0137 31.7407 33.8083 31.77C33.603 31.814 33.3317 31.836 32.9943 31.836Z" fill="white"/>
</svg>
